<svg width="37" height="40" viewBox="0 0 37 40" fill="none" xmlns="http://www.w3.org/2000/svg">
<rect x="0.145874" width="36.0278" height="40" rx="18.0139" fill="url(#paint0_radial_108_237)"/>
<path d="M18.1598 11.8072C20.5471 11.8072 20.8727 11.8072 21.8494 11.8072C22.7175 11.8072 23.1516 12.0482 23.4771 12.1687C23.9112 12.4096 24.2367 12.5301 24.5623 12.8916C24.8878 13.253 25.1049 13.6145 25.2134 14.0964C25.3219 14.4578 25.4304 14.9398 25.5389 15.9036C25.5389 16.988 25.5389 17.2289 25.5389 20C25.5389 22.7711 25.5389 23.0121 25.5389 24.0964C25.5389 25.0602 25.3219 25.5422 25.2134 25.9036C24.9964 26.3855 24.8878 26.747 24.5623 27.1084C24.2367 27.4699 23.9112 27.7108 23.4771 27.8313C23.1516 27.9518 22.7175 28.0723 21.8494 28.1928C20.8727 28.1928 20.6557 28.1928 18.1598 28.1928C15.6639 28.1928 15.4468 28.1928 14.4702 28.1928C13.602 28.1928 13.168 27.9518 12.8424 27.8313C12.4083 27.5904 12.0828 27.4699 11.7572 27.1084C11.4317 26.747 11.2146 26.3855 11.1061 25.9036C10.9976 25.5422 10.8891 25.0602 10.7806 24.0964C10.7806 23.0121 10.7806 22.7711 10.7806 20C10.7806 17.2289 10.7806 16.988 10.7806 15.9036C10.7806 14.9398 10.9976 14.4578 11.1061 14.0964C11.3232 13.6145 11.4317 13.253 11.7572 12.8916C12.0828 12.5301 12.4083 12.2892 12.8424 12.1687C13.168 12.0482 13.602 11.9277 14.4702 11.8072C15.4468 11.8072 15.7724 11.8072 18.1598 11.8072ZM18.1598 10C15.6639 10 15.4468 10 14.4702 10C13.4935 10 12.8424 10.241 12.2998 10.4819C11.7572 10.7229 11.2147 11.0843 10.6721 11.6867C10.1295 12.2892 9.91244 12.7711 9.58689 13.494C9.36985 14.0964 9.26134 14.8193 9.15282 15.9036C9.15282 16.988 9.15282 17.3494 9.15282 20C9.15282 22.7711 9.15282 23.0121 9.15282 24.0964C9.15282 25.1807 9.36985 25.9036 9.58689 26.506C9.80392 27.1084 10.1295 27.7108 10.6721 28.3133C11.2147 28.9157 11.6487 29.1566 12.2998 29.5181C12.8424 29.759 13.4935 29.8795 14.4702 30C15.4468 30 15.7724 30 18.1598 30C20.5471 30 20.8727 30 21.8494 30C22.826 30 23.4771 29.759 24.0197 29.5181C24.5623 29.2771 25.1049 28.9157 25.6475 28.3133C26.1901 27.7108 26.4071 27.2289 26.7326 26.506C26.9497 25.9036 27.0582 25.1807 27.1667 24.0964C27.1667 23.0121 27.1667 22.6506 27.1667 20C27.1667 17.3494 27.1667 16.988 27.1667 15.9036C27.1667 14.8193 26.9497 14.0964 26.7326 13.494C26.5156 12.8916 26.1901 12.2892 25.6475 11.6867C25.1049 11.0843 24.6708 10.8434 24.0197 10.4819C23.4771 10.241 22.826 10.1205 21.8494 10C20.8727 10 20.6557 10 18.1598 10Z" fill="white"/>
<path d="M18.1598 14.8193C15.5553 14.8193 13.4935 17.1084 13.4935 20C13.4935 22.8916 15.5553 25.1807 18.1598 25.1807C20.7642 25.1807 22.826 22.8916 22.826 20C22.826 17.1084 20.7642 14.8193 18.1598 14.8193ZM18.1598 23.3735C16.532 23.3735 15.1213 21.9277 15.1213 20C15.1213 18.1928 16.4235 16.6265 18.1598 16.6265C19.7875 16.6265 21.1983 18.0723 21.1983 20C21.1983 21.8072 19.7875 23.3735 18.1598 23.3735Z" fill="white"/>
<path d="M22.9345 15.9036C23.5339 15.9036 24.0197 15.3642 24.0197 14.6988C24.0197 14.0334 23.5339 13.494 22.9345 13.494C22.3352 13.494 21.8494 14.0334 21.8494 14.6988C21.8494 15.3642 22.3352 15.9036 22.9345 15.9036Z" fill="white"/>
<defs>
<radialGradient id="paint0_radial_108_237" cx="0" cy="0" r="1" gradientUnits="userSpaceOnUse" gradientTransform="translate(36.8984 0.812501) scale(83.1988 92.3719)">
<stop stop-color="#F9ED32"/>
<stop offset="0.36" stop-color="#EE2A7B"/>
<stop offset="0.44" stop-color="#D22A8A"/>
<stop offset="0.6" stop-color="#8B2AB2"/>
<stop offset="0.83" stop-color="#1B2AF0"/>
<stop offset="0.88" stop-color="#002AFF"/>
</radialGradient>
</defs>
</svg>
