<?xml version="1.0" standalone="no"?>
<!DOCTYPE svg PUBLIC "-//W3C//DTD SVG 20010904//EN"
 "http://www.w3.org/TR/2001/REC-SVG-20010904/DTD/svg10.dtd">
<svg version="1.0" xmlns="http://www.w3.org/2000/svg"
 width="500.000000pt" height="500.000000pt" viewBox="0 0 500.000000 500.000000"
 preserveAspectRatio="xMidYMid meet">

<g transform="translate(0.000000,500.000000) scale(0.100000,-0.100000)"
fill="#5271FF" stroke="none">
<path d="M2245 4785 c-5 -2 -55 -11 -110 -20 -155 -24 -296 -56 -352 -81 -17
-8 -36 -14 -41 -14 -39 0 -452 -201 -472 -230 -3 -4 -15 -10 -27 -14 -13 -4
-23 -12 -23 -17 0 -5 -5 -9 -11 -9 -12 0 -107 -70 -199 -149 -90 -76 -231
-221 -301 -311 -33 -41 -64 -80 -69 -87 -6 -7 -10 -16 -10 -22 0 -5 -6 -11
-13 -14 -7 -2 -21 -22 -32 -43 -11 -22 -22 -41 -26 -44 -23 -22 -150 -267
-197 -385 -27 -66 -58 -162 -67 -205 -4 -19 -11 -41 -16 -50 -13 -25 -36 -155
-59 -325 -15 -116 -12 -469 5 -576 25 -150 46 -262 55 -284 5 -11 12 -36 16
-55 3 -19 9 -39 13 -45 3 -5 18 -46 32 -90 15 -44 31 -79 37 -78 6 2 9 -3 6
-11 -8 -20 148 -335 175 -356 4 -3 18 -23 31 -45 13 -22 33 -52 44 -66 12 -15
32 -41 46 -59 127 -166 334 -371 355 -352 5 4 5 2 1 -5 -3 -7 7 -21 26 -34 18
-13 38 -28 43 -34 6 -6 44 -34 85 -61 41 -27 77 -51 80 -54 4 -4 29 -18 115
-64 11 -6 22 -14 25 -17 8 -10 172 -86 236 -110 32 -12 64 -25 69 -29 6 -4 26
-11 45 -15 19 -4 40 -11 45 -15 6 -4 30 -11 55 -15 25 -4 50 -10 55 -14 11 -7
105 -28 185 -41 30 -5 87 -14 125 -21 114 -18 472 -16 590 5 151 26 259 49
270 56 6 4 28 11 50 14 43 8 115 30 155 48 30 13 48 20 120 49 63 24 123 52
130 59 3 3 23 14 45 25 266 132 553 380 769 663 54 72 186 289 186 308 0 7 3
14 7 16 13 5 43 72 113 253 22 55 40 114 46 148 3 20 10 40 15 43 5 3 9 15 9
26 0 12 6 49 14 82 37 160 48 269 49 479 0 153 -5 241 -17 317 -19 118 -77
372 -87 380 -3 3 -9 21 -13 41 -3 20 -18 59 -31 87 -14 29 -25 58 -25 64 -1
26 -86 189 -94 181 -5 -4 -6 -3 -2 4 4 7 -4 29 -16 50 -13 21 -32 55 -43 76
-11 20 -22 37 -26 37 -4 0 -9 8 -13 18 -7 22 -25 49 -53 81 -13 14 -23 29 -23
33 0 4 -24 35 -52 70 -29 35 -62 74 -73 88 -32 40 -177 181 -241 236 -192 163
-468 324 -689 401 -38 13 -79 28 -90 32 -24 11 -116 35 -210 55 -168 37 -270
46 -505 45 -129 0 -239 -2 -245 -4z m-727 -1883 l-3 -217 -114 0 -114 0 1 53
c0 28 1 55 1 60 1 4 27 7 58 7 l58 0 3 160 2 160 55 -3 55 -4 -2 -216z m172
-88 l0 -304 -199 0 -199 0 -4 56 c-1 31 -1 58 1 60 2 2 69 4 148 4 l143 0 0
248 0 247 55 -3 55 -4 0 -304z m168 -82 l2 -391 -285 -3 c-157 -2 -285 0 -286
5 0 4 -1 30 -1 58 l-1 50 229 2 229 2 3 335 2 335 53 -1 52 -2 3 -390z m509
293 c55 -249 92 -429 88 -435 -2 -3 -21 -4 -42 -2 -36 3 -38 5 -41 43 -1 21
-7 50 -12 65 -9 23 -14 25 -57 22 l-47 -3 -12 -57 c-6 -32 -9 -60 -6 -63 3 -3
-15 -5 -40 -5 -39 0 -45 3 -42 18 10 44 94 441 99 471 8 47 9 48 52 46 l38 -1
22 -99z m223 -138 l-1 -237 71 0 70 0 0 -30 0 -30 -112 0 -113 0 0 262 c0 145
3 265 7 268 3 3 23 5 43 5 l36 0 -1 -238z m401 233 c3 0 4 -13 1 -30 -4 -30
-5 -30 -68 -30 l-64 0 0 -80 c0 -57 4 -80 13 -81 6 -1 28 -2 47 -3 32 -1 35
-4 38 -33 l3 -33 -51 0 -51 0 3 -120 3 -120 -45 0 -45 0 2 267 c2 148 3 268 3
268 4 0 207 -5 211 -5z m-1643 -132 l-3 -133 -29 0 -28 0 -2 133 -1 132 33 0
33 0 -3 -132z m1884 7 c15 -66 29 -133 32 -150 3 -16 16 -81 30 -142 l24 -113
-43 0 -42 0 -9 63 -9 62 -50 0 -50 0 -12 -54 c-6 -30 -9 -59 -7 -63 3 -4 -16
-8 -41 -8 -46 0 -47 0 -40 28 4 15 22 99 40 187 19 88 42 195 51 238 l17 78
41 -3 41 -3 27 -120z m-519 -479 c64 -26 72 -51 75 -240 4 -194 -7 -243 -62
-277 -38 -23 -125 -25 -166 -4 -57 30 -65 60 -65 260 0 202 8 233 68 259 42
19 109 20 150 2z m567 -12 c0 -19 -81 -507 -85 -514 -2 -3 -16 -5 -32 -5 -26
2 -29 6 -39 61 -7 32 -13 59 -14 59 -1 0 -3 11 -4 25 -1 14 -11 72 -21 129
l-19 103 -17 -88 c-9 -49 -24 -133 -34 -186 l-17 -98 -33 0 c-28 0 -34 4 -39
28 -12 60 -76 465 -76 483 0 15 7 19 34 19 33 0 33 -1 40 -52 23 -182 43 -291
49 -268 8 31 57 300 57 312 0 4 15 8 33 8 l33 0 29 -157 c15 -87 31 -162 35
-166 4 -4 17 66 30 155 12 90 27 166 32 169 16 10 58 -2 58 -17z m-886 5 c73
-34 76 -213 4 -258 -11 -7 -43 -15 -71 -18 -29 -3 -55 -11 -60 -17 -4 -6 -7
-60 -6 -120 l1 -109 -38 0 -39 0 -3 266 -2 267 94 0 c52 0 106 -5 120 -11z
m1166 -19 l0 -30 -65 0 -66 0 3 -82 3 -83 50 -1 c49 -1 50 -1 53 -32 l3 -32
-55 0 -56 0 0 -90 0 -90 68 0 67 0 0 -29 0 -30 -108 -3 -107 -3 0 268 0 267
105 0 105 0 0 -30z m270 15 c45 -23 63 -67 58 -143 -4 -56 -8 -68 -32 -88
l-27 -24 36 -126 c19 -69 34 -128 31 -132 -2 -4 -23 -6 -45 -4 -30 3 -41 9
-41 21 -1 9 -13 61 -29 116 -26 93 -30 100 -55 103 l-27 3 3 -120 c2 -67 -1
-122 -5 -124 -5 -1 -25 -1 -45 1 l-37 4 3 264 3 264 90 0 c61 0 99 -5 119 -15z
m-2482 -492 l-3 -268 -28 0 -28 0 0 260 c0 143 1 263 1 268 0 4 14 7 30 7 l30
0 -2 -267z m170 0 l-3 -268 -52 -5 c-32 -3 -54 -1 -55 5 -2 5 -2 128 0 273 l3
262 54 0 55 0 -2 -267z m172 -3 l0 -271 -57 3 c-32 2 -57 6 -55 11 1 4 2 124
2 267 l0 260 55 0 55 0 0 -270z m170 0 l0 -270 -55 0 -55 0 0 270 0 270 55 0
55 0 0 -270z m360 -429 c12 -23 -7 -42 -21 -20 -4 7 -11 10 -15 6 -4 -4 5 -20
19 -35 32 -33 35 -67 7 -82 -26 -14 -60 3 -60 30 0 23 18 27 26 5 4 -8 10 -15
15 -15 15 0 10 27 -5 33 -8 3 -22 19 -30 36 -14 27 -14 31 0 45 21 22 51 20
64 -3z m114 -3 c18 -25 7 -53 -23 -63 -13 -4 -21 -17 -23 -38 -6 -62 -23 -32
-26 46 l-3 77 30 0 c19 0 35 -8 45 -22z m100 16 c12 -5 16 -21 16 -70 0 -53
-3 -65 -20 -74 -44 -24 -70 5 -70 78 0 61 26 84 74 66z m127 -15 c8 -16 8 -28
0 -45 -7 -16 -7 -32 -1 -50 13 -33 2 -53 -17 -29 -7 11 -14 28 -14 39 -1 12
-4 5 -8 -14 -3 -19 -12 -35 -18 -35 -7 0 -13 3 -13 8 0 4 0 39 0 77 l0 70 30
0 c20 0 33 -7 41 -21z m113 12 c3 -5 -1 -11 -9 -15 -11 -4 -15 -21 -15 -65 0
-43 -4 -60 -15 -65 -12 -4 -15 6 -15 58 0 48 -4 65 -15 70 -8 3 -15 10 -15 16
0 12 77 14 84 1z m167 -18 c7 -18 6 -30 -1 -37 -8 -8 -12 -4 -16 12 -4 12 -13
22 -20 22 -10 0 -14 -14 -14 -50 0 -51 17 -69 27 -30 6 24 25 22 29 -3 3 -20
-21 -47 -41 -47 -28 0 -45 31 -45 84 0 57 12 76 47 76 16 0 27 -8 34 -27z
m117 -45 c3 -59 0 -68 -18 -78 -14 -8 -26 -8 -40 0 -17 9 -20 21 -20 74 0 34
3 66 7 70 4 4 21 6 38 4 30 -3 30 -3 33 -70z m77 32 c8 -47 20 -45 29 5 4 20
13 35 21 35 10 0 14 -20 17 -75 2 -41 0 -75 -4 -75 -18 0 -22 7 -20 35 1 29 0
27 -21 -25 l-9 -25 -13 35 -13 35 -1 -33 c-1 -19 -6 -32 -12 -30 -6 2 -10 7
-10 11 1 4 1 39 1 77 0 54 3 70 14 70 9 0 17 -15 21 -40z m169 34 c26 -10 20
-62 -8 -76 -17 -7 -26 -20 -28 -42 -6 -61 -23 -30 -26 47 -3 76 -3 77 22 77
13 0 31 -3 40 -6z m74 -62 c3 -54 6 -62 22 -62 11 0 20 -4 20 -10 0 -5 -17
-10 -37 -10 l-38 0 3 76 c4 93 26 98 30 6z m132 57 c0 -6 -9 -13 -20 -16 -23
-6 -27 -33 -6 -33 24 0 30 -21 7 -27 -28 -7 -28 -43 -1 -43 11 0 20 -4 20 -10
0 -5 -16 -10 -35 -10 l-35 0 0 75 0 75 35 0 c19 0 35 -5 35 -11z m56 -11 l7
-23 8 23 c5 12 13 22 19 22 13 0 13 -9 -1 -47 -8 -24 -7 -39 5 -66 8 -19 12
-38 9 -41 -9 -9 -33 15 -33 33 -1 10 -6 6 -16 -11 -14 -27 -25 -34 -36 -23 -3
3 3 22 13 42 16 32 17 39 4 71 -18 42 -18 42 -1 42 8 0 18 -10 22 -22z"/>
<path  d="M2291 2905 c-7 -44 -15 -90 -18 -102 -5 -21 -1 -23 32 -23 l38 0 -7
48 c-4 26 -12 72 -19 102 l-13 55 -13 -80z"/>
<path d="M3147 2895 c-22 -119 -23 -115 19 -115 l35 0 -6 43 c-4 23 -12 69
-19 102 l-12 60 -17 -90z"/>
<path d="M2596 2438 c-13 -18 -16 -54 -16 -183 0 -180 7 -205 60 -205 63 0 73
38 68 240 -3 126 -5 143 -22 156 -30 21 -72 17 -90 -8z"/>
<path d="M2267 2453 c-4 -3 -7 -39 -7 -79 0 -81 12 -94 66 -74 38 15 44 26 44
87 0 42 -4 54 -19 63 -22 11 -74 14 -84 3z"/>
<path d="M3700 2380 l0 -80 33 0 c54 0 72 20 72 80 0 60 -18 80 -72 80 l-33 0
0 -80z"/>
<path d="M2290 1555 c0 -8 5 -15 10 -15 6 0 10 7 10 15 0 8 -4 15 -10 15 -5 0
-10 -7 -10 -15z"/>
<path d="M2392 1523 c4 -66 28 -70 28 -4 0 39 -4 51 -16 51 -12 0 -14 -10 -12
-47z"/>
<path d="M2520 1554 c0 -8 5 -12 10 -9 6 4 8 11 5 16 -9 14 -15 11 -15 -7z"/>
<path d="M2910 1520 c0 -27 5 -50 10 -50 6 0 10 23 10 50 0 28 -4 50 -10 50
-5 0 -10 -22 -10 -50z"/>
<path d="M3170 1555 c0 -8 5 -15 10 -15 6 0 10 7 10 15 0 8 -4 15 -10 15 -5 0
-10 -7 -10 -15z"/>
</g>
</svg>
