<svg width="25" height="25" viewBox="0 0 25 25" fill="none" xmlns="http://www.w3.org/2000/svg">
<path d="M23.6111 12.5C23.2407 12.5 22.9106 12.3667 22.6208 12.1C22.331 11.8333 22.1639 11.5037 22.1194 11.1111C21.8185 8.95833 20.9097 7.12361 19.3931 5.60694C17.8764 4.09028 16.0417 3.18194 13.8889 2.88194C13.4954 2.83565 13.1653 2.67361 12.8986 2.39583C12.6319 2.11806 12.4991 1.78241 12.5 1.38889C12.5 0.99537 12.6389 0.665278 12.9167 0.398611C13.1944 0.131944 13.5185 0.0222222 13.8889 0.0694444C16.8056 0.393518 19.294 1.58565 21.3542 3.64583C23.4144 5.70602 24.6065 8.19444 24.9306 11.1111C24.9769 11.4815 24.8667 11.8056 24.6 12.0833C24.3333 12.3611 24.0037 12.5 23.6111 12.5ZM17.8125 12.5C17.5116 12.5 17.2454 12.3958 17.0139 12.1875C16.7824 11.9792 16.6088 11.7014 16.4931 11.3542C16.3079 10.6829 15.9546 10.0866 15.4333 9.56528C14.912 9.04398 14.3162 8.6912 13.6458 8.50694C13.2986 8.3912 13.0208 8.21759 12.8125 7.98611C12.6042 7.75463 12.5 7.47685 12.5 7.15278C12.5 6.68981 12.662 6.31343 12.9861 6.02361C13.3102 5.7338 13.669 5.63565 14.0625 5.72917C15.3588 6.03009 16.4759 6.64954 17.4139 7.5875C18.3519 8.52546 18.9708 9.64213 19.2708 10.9375C19.3634 11.331 19.2593 11.6898 18.9583 12.0139C18.6574 12.338 18.2755 12.5 17.8125 12.5ZM23.5417 25C20.5556 25 17.6444 24.3343 14.8083 23.0028C11.9722 21.6713 9.46065 19.912 7.27361 17.725C5.08658 15.538 3.32732 13.0264 1.99583 10.1903C0.664353 7.35417 -0.000924961 4.44352 9.65177e-07 1.45833C9.65177e-07 1.04167 0.13889 0.694444 0.416668 0.416667C0.694445 0.138889 1.04167 0 1.45833 0H7.08333C7.40741 0 7.69676 0.104167 7.95139 0.3125C8.20602 0.520833 8.35648 0.787037 8.40278 1.11111L9.30556 5.97222C9.35185 6.2963 9.34583 6.59167 9.2875 6.85833C9.22917 7.125 9.0963 7.36204 8.88889 7.56944L5.55556 10.9722C6.52778 12.6389 7.74306 14.2014 9.20139 15.6597C10.6597 17.1181 12.2685 18.3796 14.0278 19.4444L17.2917 16.1806C17.5 15.9722 17.7722 15.8162 18.1083 15.7125C18.4444 15.6088 18.7741 15.5796 19.0972 15.625L23.8889 16.5972C24.213 16.6667 24.4792 16.8231 24.6875 17.0667C24.8958 17.3102 25 17.5935 25 17.9167V23.5417C25 23.9583 24.8611 24.3056 24.5833 24.5833C24.3056 24.8611 23.9583 25 23.5417 25Z" fill="white"/>
</svg>
