<svg width="35" height="38" viewBox="0 0 35 38" fill="none" xmlns="http://www.w3.org/2000/svg">
<rect x="0.736816" width="34.2264" height="38" rx="17.1132" fill="#55ACE3"/>
<path d="M26.92 14.1551C26.321 14.4401 25.6365 14.6301 24.952 14.7251C25.6365 14.2501 26.2355 13.4901 26.4922 12.6351C25.8076 13.1101 25.1231 13.3951 24.2675 13.5851C23.6685 12.8251 22.7273 12.3501 21.786 12.3501C19.9036 12.3501 18.3634 14.0601 18.3634 16.1501C18.3634 16.4351 18.3634 16.7201 18.449 17.0051C15.6253 16.8151 13.0583 15.2951 11.347 13.0151C11.0903 13.5851 10.9192 14.2501 10.9192 14.9151C10.9192 16.2451 11.5181 17.3851 12.4594 18.0501C11.8604 18.0501 11.347 17.8601 10.9192 17.5751C10.9192 19.3801 12.1171 20.9951 13.6573 21.2801C13.4006 21.3751 13.0583 21.3751 12.7161 21.3751C12.4594 21.3751 12.2882 21.3751 12.0315 21.2801C12.4594 22.8001 13.7428 23.9401 15.283 23.9401C14.0851 24.9851 12.6305 25.5551 11.0047 25.5551C10.748 25.5551 10.4913 25.5551 10.1491 25.4601C11.6893 26.5051 13.4861 27.1701 15.4542 27.1701C21.786 27.1701 25.2087 21.3751 25.2087 16.3401V15.8651C25.8932 15.5801 26.4922 14.9151 26.92 14.1551Z" fill="white"/>
</svg>
