<svg width="39" height="39" viewBox="0 0 39 39" fill="none" xmlns="http://www.w3.org/2000/svg">
<rect x="0.771606" width="37.8292" height="39" rx="18.9146" fill="#0077FF"/>
<path d="M20.6154 26.3248C13.5068 26.3248 9.45212 21.2009 9.28317 12.6748H12.844C12.9609 18.9328 15.5861 21.5835 17.6654 22.1301V12.6748H21.0182V18.072C23.0716 17.8397 25.2288 15.3802 25.9566 12.6748H29.3095C29.0352 14.0779 28.4886 15.4064 27.7037 16.5772C26.9188 17.7481 25.9126 18.736 24.748 19.4793C26.048 20.1585 27.1962 21.1198 28.1169 22.2998C29.0376 23.4797 29.7098 24.8516 30.0892 26.3248H26.3984C26.0579 25.0452 25.3657 23.8998 24.4086 23.0321C23.4515 22.1643 22.2721 21.6129 21.0182 21.4469V26.3248H20.6154Z" fill="white"/>
</svg>
